<svg width="242" height="75" viewBox="0 0 242 75" fill="none" xmlns="http://www.w3.org/2000/svg">
<g clip-path="url(#clip0_403_595)">
<path d="M115.275 6.00781L120.294 25.2094L125.274 6.00781H132.292V32.5916H126.92V25.3665L127.391 14.2932L122.098 32.5916H118.451L113.158 14.2932L113.628 25.3665V32.5916H108.296V6.00781H115.275Z" fill="white"/>
<path d="M149.584 27.1335H142.291L140.879 32.5916H135.194L143.506 6.00781H148.407L156.759 32.5916H151.23L149.584 27.1335ZM143.389 22.657H148.329L145.859 13.1937L143.389 22.657Z" fill="white"/>
<path d="M164.483 17.9451L168.404 6.16504H174.246L167.149 23.0891V32.7488H161.699V23.0891L154.563 6.16504H160.405L164.483 17.9451Z" fill="white"/>
<path d="M195.38 32.5916H190.009V21.2042H182.167V32.5916H176.795V6.00781H182.167V16.7278H190.009V6.00781H195.38V32.5916Z" fill="white"/>
<path d="M213.377 21.0864H205.025V28.1152H214.906V32.5916H199.654V6.00781H214.867V10.445H205.025V16.7278H213.377V21.0864Z" fill="white"/>
<path d="M225.022 6.00781L230.002 25.2094L235.021 6.00781H242V32.5916H236.628V25.3665L237.138 14.2932L231.806 32.5916H228.159L222.866 14.2932L223.376 25.3665V32.5916H217.886V6.00781H225.022Z" fill="white"/>
<path d="M119.51 61.7277C119.547 61.2779 119.49 60.8251 119.341 60.3989C119.193 59.9728 118.956 59.5827 118.647 59.2539C117.761 58.489 116.736 57.9023 115.628 57.5262C113.473 56.8082 111.513 55.5983 109.904 53.9921C108.741 52.6553 108.112 50.9351 108.139 49.1623C108.107 48.1429 108.305 47.1294 108.719 46.1977C109.133 45.266 109.753 44.4404 110.531 43.7827C112.221 42.3757 114.373 41.6479 116.569 41.7408C118.082 41.715 119.578 42.0658 120.922 42.7617C122.172 43.4109 123.197 44.4239 123.862 45.6675C124.579 46.9785 124.944 48.4532 124.921 49.9476H119.549C119.632 48.9418 119.354 47.9393 118.765 47.1204C118.491 46.7873 118.142 46.5244 117.747 46.3537C117.351 46.1829 116.921 46.1092 116.491 46.1387C116.088 46.1131 115.683 46.1734 115.305 46.3155C114.926 46.4576 114.582 46.6784 114.295 46.9633C113.755 47.5802 113.474 48.3821 113.511 49.2015C113.511 49.5766 113.587 49.9478 113.736 50.2922C113.884 50.6366 114.101 50.947 114.374 51.2042C115.295 51.9795 116.343 52.5904 117.471 53.0104C119.608 53.6809 121.547 54.8676 123.117 56.466C124.316 57.936 124.943 59.7913 124.882 61.6885C124.934 62.6975 124.764 63.7057 124.384 64.6419C124.005 65.5782 123.425 66.4198 122.686 67.1073C120.997 68.4802 118.86 69.1795 116.687 69.0707C115.057 69.0917 113.445 68.7285 111.982 68.0105C110.609 67.3332 109.464 66.2685 108.688 64.9476C107.878 63.5408 107.471 61.9375 107.512 60.3141H112.884C112.77 61.4994 113.091 62.6856 113.786 63.6518C114.163 64.0279 114.619 64.3148 115.121 64.4914C115.623 64.6681 116.158 64.73 116.687 64.6727C118.569 64.6727 119.51 63.6911 119.51 61.7277Z" fill="white"/>
<path d="M133.821 59.3327V68.6782H128.45V42.0944H137.507C138.668 42.0401 139.827 42.2324 140.908 42.6588C141.989 43.0852 142.968 43.7359 143.781 44.5683C144.574 45.4114 145.191 46.4052 145.595 47.491C145.999 48.5768 146.182 49.7326 146.133 50.8903C146.19 52.0277 146.014 53.1646 145.616 54.2314C145.218 55.2982 144.607 56.2725 143.82 57.0945C142.057 58.6644 139.744 59.4694 137.389 59.3327H133.821ZM133.821 54.8562H137.507C137.948 54.8857 138.39 54.8124 138.798 54.6421C139.207 54.4718 139.57 54.209 139.86 53.8745C140.465 53.0172 140.756 51.9769 140.683 50.9295C140.741 49.8222 140.453 48.7243 139.86 47.7881C139.605 47.4087 139.261 47.0986 138.857 46.8861C138.453 46.6736 138.003 46.5652 137.546 46.5709H133.821V54.8562Z" fill="white"/>
<path d="M168.365 57.8012C168.559 60.7764 167.668 63.721 165.855 66.0865C164.988 67.0847 163.906 67.8722 162.69 68.3892C161.474 68.9063 160.156 69.1394 158.837 69.0708C157.522 69.1356 156.209 68.9047 154.994 68.3951C153.78 67.8855 152.695 67.1101 151.818 66.1258C150.003 63.7886 149.084 60.8766 149.231 57.919V53.364C149.057 50.3003 149.959 47.2722 151.779 44.8038C152.674 43.8418 153.758 43.0746 154.962 42.5501C156.166 42.0256 157.465 41.7549 158.778 41.7549C160.091 41.7549 161.39 42.0256 162.594 42.5501C163.798 43.0746 164.882 43.8418 165.777 44.8038C167.637 47.2237 168.557 50.2377 168.365 53.2855V57.8012ZM162.993 53.3247C163.121 51.4863 162.769 49.6461 161.974 47.9844C161.668 47.417 161.206 46.9491 160.644 46.6359C160.081 46.3228 159.44 46.1776 158.798 46.2174C158.171 46.1866 157.548 46.3276 156.995 46.6251C156.442 46.9226 155.981 47.3654 155.661 47.9059C154.855 49.495 154.49 51.2713 154.602 53.0499V57.8012C154.489 59.5755 154.84 61.3486 155.622 62.9451C155.96 63.4846 156.437 63.9227 157.003 64.213C157.569 64.5033 158.202 64.6351 158.837 64.5944C159.455 64.6249 160.07 64.4923 160.62 64.2097C161.171 63.9271 161.638 63.5046 161.974 62.9845C162.752 61.4291 163.104 59.6945 162.993 57.9583V53.3247Z" fill="white"/>
<path d="M180.285 58.9791H177.618V68.6781H172.247V42.0943H180.794C183.064 41.9498 185.3 42.6963 187.029 44.1755C187.79 44.962 188.379 45.8993 188.757 46.9272C189.135 47.9551 189.294 49.0509 189.224 50.1441C189.339 51.6259 189.031 53.1099 188.337 54.4236C187.643 55.7373 186.591 56.8268 185.303 57.5655L189.93 68.4425V68.6781H184.166L180.285 58.9791ZM177.618 54.5027H180.637C181.098 54.5354 181.56 54.4561 181.983 54.2715C182.406 54.0869 182.779 53.8025 183.068 53.4425C183.622 52.5922 183.896 51.59 183.853 50.576C183.853 47.9059 182.833 46.6493 180.755 46.6493H177.618V54.5027Z" fill="white"/>
<path d="M209.182 46.5707H202.634V68.678H197.262V46.5707H190.792V42.0942H209.182V46.5707Z" fill="white"/>
<path d="M86.6132 46.7277C86.2613 45.6081 85.5431 44.6397 84.5744 43.979C81.0658 41.401 77.0599 39.5824 72.8116 38.6387C73.0468 37.9712 73.282 37.2251 73.5173 36.479C76.6148 27.8403 79.6731 19.2015 82.8099 10.602C83.0637 10.1335 83.132 9.58653 83.0012 9.0699C82.8704 8.55327 82.5501 8.10494 82.1042 7.81411C79.2419 5.49735 76.4581 3.10206 73.7134 0.628234C73.4156 0.271203 72.9891 0.0462137 72.5267 0.00210468C72.0642 -0.0420044 71.603 0.0983359 71.2432 0.392642C67.3223 2.67013 63.4014 4.75129 59.4804 7.02878C59.0599 7.36132 58.5275 7.51834 57.9942 7.46713C57.4608 7.41591 56.9678 7.16038 56.6181 6.75388C54.4616 4.75126 52.0698 3.02353 49.9917 0.942378C48.7762 -0.2749 47.8745 -0.0393265 46.6198 0.66748C42.6988 2.86643 39.0523 4.86907 35.3275 7.06802C35.1351 7.22698 34.9131 7.34607 34.6744 7.41836C34.4357 7.49065 34.185 7.51469 33.9369 7.48912C33.6888 7.46354 33.4483 7.38888 33.2293 7.2694C33.0103 7.14993 32.8172 6.98805 32.6613 6.79318C30.4263 4.7513 28.0345 2.86644 25.8387 0.863827C25.4771 0.415056 24.9539 0.126567 24.3818 0.0604636C23.8097 -0.00564031 23.2346 0.155946 22.7804 0.510438C19.8397 2.31672 16.8207 3.96593 13.8016 5.65441C11.449 7.02875 9.05718 8.36384 6.50858 9.77746C7.72407 11.3874 8.70433 12.7225 9.72377 14.1753L18.0361 9.77746C18.0361 10.4843 18.0361 10.7198 18.0361 10.9162C14.1152 21.0078 10.508 31.1387 6.66545 41.2303C6.11652 42.5654 6.35174 43.2329 7.60643 44.0575C11.1967 46.2543 15.3628 47.3213 19.5654 47.1204C20.1363 47.1718 20.7063 47.0126 21.1684 46.6728C21.6305 46.333 21.9528 45.8358 22.0747 45.2748C25.5512 35.6675 29.0409 26.0864 32.5436 16.5314C32.8181 15.8638 33.0533 14.9607 33.563 14.6466C36.3469 12.9581 39.2091 11.4267 42.5027 9.54186C38.0721 21.6361 33.8767 33.1021 29.4853 44.8822C35.5235 42.5262 40.9344 40.2879 46.4629 38.3246C47.2552 38.1049 47.9762 37.6811 48.554 37.0955C49.1319 36.5099 49.5465 35.7829 49.7565 34.9869C51.9522 28.8612 54.2656 22.7356 56.5397 16.6492C56.8534 15.8246 57.1671 14.8036 57.7944 14.4109C60.4215 12.7617 63.2053 11.3089 66.3421 9.58111C66.0284 10.6021 65.8715 11.1518 65.6754 11.6623C63.4797 17.7879 61.0488 23.8743 59.0099 30.0785L56.3045 37.6178L55.5202 39.856L54.2264 40.2486C51.3641 41.1911 48.6586 42.2905 46.11 43.2722C40.307 45.4712 34.5825 47.7094 28.7403 49.712C22.3825 52.2454 15.2974 52.2454 8.93954 49.712C7.41037 49.0445 5.95969 48.2199 4.35211 47.4345L0.0390625 58.7041C3.26744 60.942 6.92097 62.4908 10.7726 63.2541C14.6242 64.0175 18.5914 63.9791 22.4276 63.1413C29.993 61.0167 37.2935 58.0396 44.1888 54.267L51.6386 50.8507L50.7759 53.2853C49.1291 57.801 47.6392 61.9633 46.11 66.2434L54.8929 71.8978L55.5595 72.2905L56.3045 72.7617L57.3238 73.39L59.7549 74.9607L63.6758 71.9371L65.7147 70.3272L88.9658 52.0287C88.064 50.2617 87.2406 48.534 86.6132 46.7277ZM66.0283 58.0759C66.4204 56.8586 66.8126 55.7199 67.2047 54.6204C68.0673 52.1858 68.8122 49.9869 69.6356 47.7879V47.5523L69.9492 46.6099C72.9697 46.7398 75.9034 47.6604 78.4577 49.2801L66.0283 58.0759Z" fill="#AFED00"/>
<rect x="217.648" y="43.6226" width="24.3522" height="6.12245" fill="#AFED00"/>
</g>
<defs>
<clipPath id="clip0_403_595">
<rect width="242" height="75" fill="white"/>
</clipPath>
</defs>
</svg>
